<?xml version="1.0" encoding="utf-8"?>
<!-- Generator: Adobe Illustrator 14.0.0, SVG Export Plug-In . SVG Version: 6.00 Build 43363)  -->
<!DOCTYPE svg PUBLIC "-//W3C//DTD SVG 1.1//EN" "http://www.w3.org/Graphics/SVG/1.1/DTD/svg11.dtd">
<svg version="1.1" xmlns="http://www.w3.org/2000/svg" xmlns:xlink="http://www.w3.org/1999/xlink" x="0px" y="0px" width="256px"
	 height="256px" viewBox="0 0 256 256" enable-background="new 0 0 256 256" xml:space="preserve">
<g id="Layer0">
</g>
<g id="Layer_1">
	<g id="_x31__3_">
		<g>
			<path fill-rule="evenodd" clip-rule="evenodd" d="M122.863,71.991l-10.777,35.924l-2.734-24.938
				c-1.383,1.148-2.733,2.219-4.13,3.396l-13.134,25.541l-1.172-13.021c-9.384,8.396-18.928,17.236-28.77,27.082
				c-14.784,14.782-17.898,36.807-9.362,54.652L192.086,63.913c0,0-186.532,175.221-189.657,178.343
				c-3.123,3.126-2.343,13.657-2.343,13.657s10.533,0.783,13.656-2.342c1.107-1.107,23.815-25.236,52.678-55.934
				c18.838,14.852,46.226,13.599,63.606-3.782C240.086,83.796,256.086-0.087,256.086-0.087S201.588,10.39,122.863,71.991z"/>
		</g>
	</g>
</g>
</svg>
